<svg width="549" height="581" viewBox="0 0 549 581" fill="none" xmlns="http://www.w3.org/2000/svg">
<path d="M274.5 0C426.102 0 549 130.061 549 290.5C549 450.939 426.102 581 274.5 581C122.898 581 0 450.939 0 290.5C0 130.061 122.898 0 274.5 0ZM274.5 60.5203C162.208 60.5203 69.8083 150.656 58.3775 266.292H162.413C173.01 211.042 219.167 169.458 274.5 169.458C329.833 169.458 375.99 211.042 386.587 266.292H490.622C479.192 150.656 386.792 60.5203 274.5 60.5203ZM58.3775 314.708C69.8083 430.344 162.208 520.48 274.5 520.48C386.792 520.48 479.192 430.344 490.622 314.708L386.587 314.709C375.99 369.958 329.833 411.542 274.5 411.542C219.167 411.542 173.01 369.958 162.413 314.709L58.3775 314.708ZM274.5 217.875C236.599 217.875 205.875 250.391 205.875 290.5C205.875 330.61 236.599 363.125 274.5 363.125C312.4 363.125 343.125 330.61 343.125 290.5C343.125 250.391 312.4 217.875 274.5 217.875ZM274.5 254.188C293.451 254.188 308.812 270.445 308.812 290.5C308.812 310.555 293.451 326.812 274.5 326.812C255.549 326.812 240.188 310.555 240.188 290.5C240.188 270.445 255.549 254.188 274.5 254.188Z" fill="#4E4E4E" fill-opacity="0.1"/>
</svg>
